<svg width="107" height="15" viewBox="0 0 107 15" fill="none" xmlns="http://www.w3.org/2000/svg">
<rect width="107" height="15" fill="#1E1E1E"/>
<path d="M19.9814 14V1.52124H21.6328V14H19.9814ZM24.3567 14V4.96014H25.7356V6.24547C26.3996 5.25239 27.3586 4.75585 28.6127 4.75585C29.1575 4.75585 29.6569 4.85515 30.1108 5.05377C30.5705 5.24671 30.9138 5.50207 31.1408 5.81986C31.3678 6.13765 31.5267 6.51502 31.6175 6.95197C31.6742 7.23571 31.7026 7.73225 31.7026 8.44159V14H30.1704V8.50118C30.1704 7.87695 30.1108 7.41163 29.9917 7.10519C29.8725 6.79308 29.6597 6.54623 29.3533 6.36464C29.0525 6.17737 28.6978 6.08374 28.2893 6.08374C27.6367 6.08374 27.072 6.29086 26.5953 6.70512C26.1243 7.11938 25.8888 7.90533 25.8888 9.06297V14H24.3567ZM33.4476 11.3017L34.9628 11.0633C35.0479 11.6705 35.2834 12.1358 35.6693 12.4593C36.0608 12.7828 36.6056 12.9445 37.3036 12.9445C38.0072 12.9445 38.5293 12.8026 38.8698 12.5189C39.2103 12.2295 39.3805 11.8918 39.3805 11.506C39.3805 11.1598 39.2302 10.8874 38.9294 10.6888C38.7194 10.5526 38.1974 10.3795 37.3632 10.1695C36.2396 9.88581 35.4593 9.6418 35.0223 9.43751C34.5911 9.22754 34.2619 8.94097 34.0349 8.57778C33.8136 8.20893 33.703 7.80318 33.703 7.36055C33.703 6.95765 33.7938 6.58595 33.9753 6.24547C34.1626 5.89931 34.4151 5.61273 34.7329 5.38574C34.9713 5.20983 35.2947 5.06228 35.7033 4.94311C36.1176 4.81827 36.5602 4.75585 37.0312 4.75585C37.7405 4.75585 38.3619 4.85799 38.8953 5.06228C39.4344 5.26657 39.8317 5.54464 40.087 5.89647C40.3424 6.24263 40.5183 6.70796 40.6148 7.29246L39.1167 7.49675C39.0486 7.03142 38.8499 6.66823 38.5208 6.4072C38.1974 6.14616 37.7377 6.01564 37.1419 6.01564C36.4382 6.01564 35.936 6.13197 35.6352 6.36464C35.3344 6.5973 35.1841 6.86969 35.1841 7.1818C35.1841 7.38041 35.2465 7.55917 35.3713 7.71806C35.4962 7.88263 35.692 8.01882 35.9587 8.12664C36.1119 8.18339 36.563 8.31391 37.3121 8.5182C38.396 8.80761 39.1507 9.04595 39.5763 9.23322C40.0076 9.41481 40.3452 9.68152 40.5893 10.0334C40.8333 10.3852 40.9553 10.8221 40.9553 11.3442C40.9553 11.8549 40.8049 12.3373 40.5041 12.7913C40.209 13.2396 39.7806 13.5886 39.2188 13.8383C38.657 14.0823 38.0214 14.2043 37.3121 14.2043C36.1374 14.2043 35.2408 13.9603 34.6223 13.4722C34.0094 12.9842 33.6178 12.2607 33.4476 11.3017ZM46.1221 12.6295L46.3434 13.983C45.9122 14.0738 45.5263 14.1192 45.1858 14.1192C44.6297 14.1192 44.1984 14.0312 43.892 13.8553C43.5855 13.6794 43.3699 13.4496 43.245 13.1658C43.1202 12.8764 43.0578 12.272 43.0578 11.3527V6.15183H41.9342V4.96014H43.0578V2.72145L44.5814 1.80214V4.96014H46.1221V6.15183H44.5814V11.4379C44.5814 11.8748 44.607 12.1557 44.658 12.2806C44.7148 12.4054 44.8028 12.5047 44.9219 12.5785C45.0468 12.6522 45.2227 12.6891 45.4497 12.6891C45.6199 12.6891 45.8441 12.6693 46.1221 12.6295ZM53.5277 12.8849C52.9602 13.3673 52.4126 13.7078 51.8848 13.9064C51.3628 14.105 50.801 14.2043 50.1994 14.2043C49.2064 14.2043 48.4431 13.9631 47.9097 13.4808C47.3762 12.9927 47.1095 12.3713 47.1095 11.6166C47.1095 11.174 47.2088 10.7711 47.4075 10.4079C47.6117 10.039 47.8756 9.74394 48.1991 9.52263C48.5282 9.30131 48.8971 9.13391 49.3057 9.02041C49.6064 8.94097 50.0604 8.86436 50.6676 8.79059C51.9047 8.64304 52.8155 8.46713 53.4 8.26284C53.4057 8.05287 53.4085 7.91951 53.4085 7.86277C53.4085 7.23855 53.2638 6.79875 52.9744 6.54339C52.5828 6.19723 52.0012 6.02415 51.2294 6.02415C50.5087 6.02415 49.9753 6.15183 49.6291 6.4072C49.2886 6.65688 49.0361 7.10235 48.8715 7.7436L47.3734 7.53931C47.5096 6.89806 47.7338 6.38166 48.0459 5.9901C48.358 5.59287 48.8091 5.28927 49.3993 5.07931C49.9895 4.86367 50.6733 4.75585 51.4507 4.75585C52.2225 4.75585 52.8495 4.84664 53.3319 5.02823C53.8142 5.20983 54.1689 5.43965 54.3959 5.71771C54.6229 5.9901 54.7818 6.33626 54.8726 6.75619C54.9237 7.01723 54.9492 7.48823 54.9492 8.1692V10.2121C54.9492 11.6365 54.9804 12.5388 55.0428 12.919C55.1109 13.2935 55.2414 13.6538 55.4344 14H53.8341C53.6752 13.6822 53.5731 13.3105 53.5277 12.8849ZM53.4 9.46304C52.8439 9.69003 52.0097 9.88298 50.8974 10.0419C50.2675 10.1327 49.8221 10.2348 49.561 10.3483C49.3 10.4618 49.0985 10.6292 48.9567 10.8505C48.8148 11.0662 48.7439 11.3073 48.7439 11.574C48.7439 11.9826 48.8971 12.3231 49.2035 12.5955C49.5156 12.8679 49.9696 13.0041 50.5655 13.0041C51.1556 13.0041 51.6805 12.8764 52.1402 12.621C52.5998 12.36 52.9375 12.0053 53.1531 11.557C53.3177 11.2109 53.4 10.7001 53.4 10.0248V9.46304ZM57.4603 14V1.52124H59.1116V12.5274H65.2574V14H57.4603ZM67.0449 3.28325V1.52124H68.5771V3.28325H67.0449ZM67.0449 14V4.96014H68.5771V14H67.0449ZM70.9179 14V4.96014H72.2969V6.24547C72.9608 5.25239 73.9199 4.75585 75.174 4.75585C75.7187 4.75585 76.2181 4.85515 76.6721 5.05377C77.1318 5.24671 77.4751 5.50207 77.7021 5.81986C77.9291 6.13765 78.0879 6.51502 78.1787 6.95197C78.2355 7.23571 78.2639 7.73225 78.2639 8.44159V14H76.7317V8.50118C76.7317 7.87695 76.6721 7.41163 76.5529 7.10519C76.4338 6.79308 76.221 6.54623 75.9145 6.36464C75.6138 6.17737 75.2591 6.08374 74.8505 6.08374C74.1979 6.08374 73.6333 6.29086 73.1566 6.70512C72.6856 7.11938 72.4501 7.90533 72.4501 9.06297V14H70.9179ZM80.6302 14V1.52124H82.1624V8.63737L85.7886 4.96014H87.7719L84.316 8.31391L88.1209 14H86.2312L83.2435 9.37792L82.1624 10.4164V14H80.6302ZM95.5264 11.0889L97.1097 11.2846C96.86 12.2096 96.3975 12.9275 95.7222 13.4382C95.0469 13.9489 94.1844 14.2043 93.1345 14.2043C91.8123 14.2043 90.7625 13.7985 89.985 12.9871C89.2133 12.1699 88.8274 11.0264 88.8274 9.55668C88.8274 8.03585 89.219 6.8555 90.0021 6.01564C90.7852 5.17578 91.801 4.75585 93.0494 4.75585C94.2581 4.75585 95.2455 5.16726 96.0116 5.9901C96.7777 6.81294 97.1608 7.97059 97.1608 9.46304C97.1608 9.55384 97.1579 9.69003 97.1522 9.87163H90.4106C90.4674 10.8647 90.7483 11.6251 91.2533 12.1529C91.7584 12.6806 92.3883 12.9445 93.143 12.9445C93.7048 12.9445 94.1844 12.797 94.5816 12.5019C94.9788 12.2068 95.2938 11.7358 95.5264 11.0889ZM90.4958 8.61183H95.5435C95.4754 7.85142 95.2824 7.28111 94.9646 6.9009C94.4766 6.31073 93.8439 6.01564 93.0664 6.01564C92.3628 6.01564 91.7697 6.25114 91.2874 6.72214C90.8107 7.19315 90.5468 7.82304 90.4958 8.61183ZM104.907 14V12.8594C104.334 13.756 103.491 14.2043 102.379 14.2043C101.658 14.2043 100.994 14.0057 100.387 13.6084C99.7853 13.2112 99.3172 12.6579 98.9823 11.9486C98.6532 11.2336 98.4886 10.4136 98.4886 9.48858C98.4886 8.5863 98.639 7.76913 98.9398 7.03709C99.2405 6.29938 99.6917 5.73474 100.293 5.34318C100.895 4.95162 101.567 4.75585 102.311 4.75585C102.855 4.75585 103.341 4.87218 103.766 5.10484C104.192 5.33183 104.538 5.62976 104.805 5.99861V1.52124H106.328V14H104.907ZM100.063 9.48858C100.063 10.6462 100.307 11.5116 100.795 12.0848C101.283 12.6579 101.859 12.9445 102.523 12.9445C103.193 12.9445 103.76 12.6721 104.226 12.1273C104.697 11.5769 104.932 10.7399 104.932 9.61626C104.932 8.37917 104.694 7.47121 104.217 6.89239C103.741 6.31356 103.153 6.02415 102.455 6.02415C101.774 6.02415 101.204 6.30221 100.744 6.85834C100.29 7.41446 100.063 8.29121 100.063 9.48858Z" fill="white"/>
<path d="M1.89392 3.66912C2.93796 3.66912 3.78433 2.90968 3.78433 1.97287C3.78433 1.03605 2.93796 0.276614 1.89392 0.276614C0.849871 0.276614 0.00350499 1.03605 0.00350499 1.97287C0.00350499 2.90968 0.849871 3.66912 1.89392 3.66912Z" fill="white"/>
<path d="M14.244 14.7465C15.288 14.7465 16.1344 13.987 16.1344 13.0502C16.1344 12.1134 15.288 11.354 14.244 11.354C13.1999 11.354 12.3536 12.1134 12.3536 13.0502C12.3536 13.987 13.1999 14.7465 14.244 14.7465Z" fill="white"/>
<path d="M3.77708 14.7389C2.84372 14.74 1.94306 14.4305 1.2492 13.8703C0.55535 13.3101 0.117567 12.539 0.0204748 11.7061C-0.0766175 10.8731 0.173875 10.0374 0.723535 9.36053C1.2732 8.68365 2.08299 8.21364 2.9964 8.04135C4.38741 7.77856 5.66335 7.15877 6.66906 6.25735C7.67478 5.35593 8.36693 4.21172 8.66135 2.96388C8.80249 2.36788 9.1203 1.81711 9.58124 1.36969C10.0422 0.922271 10.6292 0.594784 11.2803 0.421783C11.9314 0.248782 12.6225 0.236682 13.2806 0.38676C13.9387 0.536837 14.5395 0.843528 15.0195 1.27447C15.4996 1.70542 15.8411 2.24464 16.008 2.83524C16.175 3.42585 16.1612 4.04593 15.9681 4.63008C15.775 5.21423 15.4097 5.74078 14.9109 6.15417C14.412 6.56757 13.7981 6.85248 13.1338 6.97884C11.7428 7.24164 10.4668 7.86143 9.46112 8.76285C8.45541 9.66427 7.76325 10.8085 7.46884 12.0563C7.28653 12.8141 6.82108 13.4933 6.14963 13.9812C5.47819 14.4691 4.64108 14.7364 3.77708 14.7389Z" fill="white"/>
</svg>
